:version 1.10
:name ASF
:units
  mass 1
  length 1
  angle deg
:documentation
  ASF file generated by Kaydara
:root
  axis xyz
  order  tx ty tz rx ry rz
  position 0 0 0
  orientation 0 0 0
:bonedata
  begin
    id 1
    name RightUpLegDummy
    direction -0.65628 -0.754516 0.00165102
    length 4.76918
    axis 0 0 0 xyz
  end
  begin
    id 2
    name RightUpLeg
    direction -0.145584 -0.923362 0.355256
    length 17.9961
    axis -24.7611 -13.1006 1.78531 xyz
    dof rx ry rz
  end
  begin
    id 3
    name RightLeg
    direction 0.263379 0.172355 -0.949171
    length 13.3386
    axis 89.6202 -21.1929 12.3855 xyz
    dof rx ry rz
  end
  begin
    id 4
    name RightFoot
    direction 0.224283 -0.968777 -0.105675
    length 5.86697
    axis 56.995 -39.6905 17.3365 xyz
    dof rx ry rz
  end
  begin
    id 5
    name RightToes
    direction -0.0806345 -0.9037 0.420506
    length 4.75197
    axis 146.825 -39.7828 17.6019 xyz
    dof rx ry rz
  end
  begin
    id 6
    name SpineDummy
    direction -3.39852e-014 1 9.33296e-014
    length 8.13779
    axis 0 0 0 xyz
  end
  begin
    id 7
    name Spine
    direction -0.156609 0.733703 0.661176
    length 7.14978
    axis 41.2365 5.68757 17.0844 xyz
    dof rx ry rz
  end
  begin
    id 8
    name Spine1
    direction 0 0 0
    length 0
    axis 42.8809 47.8308 -3.36039 xyz
    dof rx ry rz
  end
  begin
    id 9
    name HEadDummy
    direction 0.546431 0.701947 0.456819
    length 3.55512
    axis 42.8809 47.8308 -3.36039 xyz
  end
  begin
    id 10
    name HEad
    direction 0.23444 0.828559 0.508457
    length 7.35827
    axis 51.1864 49.2662 27.4903 xyz
    dof rx ry rz
  end
  begin
    id 11
    name LeftShoulder1Dummy
    direction 0.431183 0.475873 -0.766568
    length 2.49352
    axis 42.8809 47.8308 -3.36039 xyz
  end
  begin
    id 12
    name LeftShoulder1
    direction 0.268187 -0.383402 -0.883786
    length 4.48604
    axis -119.517 0.106469 35.1736 xyz
    dof rx ry rz
  end
  begin
    id 13
    name LeftArm
    direction 0.380567 -0.703221 -0.600541
    length 10.1142
    axis -5.41825 36.2925 7.8293 xyz
    dof rx ry rz
  end
  begin
    id 14
    name LeftForeArm
    direction 0.541071 -0.732356 -0.413396
    length 9.39839
    axis 4.65387 33.7604 7.81644 xyz
    dof rx ry rz
  end
  begin
    id 15
    name LeftHand
    direction 0.847511 -0.389379 -0.360707
    length 3.66142
    axis 7.65593 21.1436 -24.6758 xyz
    dof rx ry rz
  end
  begin
    id 16
    name RightShoulderDummy
    direction -0.692546 0.541855 0.476208
    length 2.49352
    axis 42.8809 47.8308 -3.36039 xyz
  end
  begin
    id 17
    name RightShoulder
    direction -0.870808 -0.316653 0.376065
    length 4.48602
    axis 141.571 51.133 -100.254 xyz
    dof rx ry rz
  end
  begin
    id 18
    name RightArm
    direction 0.366897 -0.87275 0.322015
    length 10.1142
    axis 92.3258 71.2036 138.917 xyz
    dof rx ry rz
  end
  begin
    id 19
    name RightForeArm
    direction 0.702487 -0.694568 0.155197
    length 9.39835
    axis 153.863 41.5092 -176.604 xyz
    dof rx ry rz
  end
  begin
    id 20
    name RightHand
    direction 0.79502 -0.601276 0.0800636
    length 3.66142
    axis 154.247 4.59222 142.9 xyz
    dof rx ry rz
  end
  begin
    id 21
    name LeftUpLegDummy
    direction 0.65628 -0.754516 0.00165102
    length 4.76919
    axis 0 0 0 xyz
  end
  begin
    id 22
    name LeftUpLeg
    direction -0.1277 -0.689368 0.713067
    length 17.9961
    axis -48.3385 -17.8675 0.791927 xyz
    dof rx ry rz
  end
  begin
    id 23
    name LeftLeg
    direction 0.109849 -0.991246 -0.0732378
    length 13.3386
    axis -2.05791 -7.30784 1.72042 xyz
    dof rx ry rz
  end
  begin
    id 24
    name LeftFoot
    direction 0.0448355 -0.272614 0.961078
    length 5.86697
    axis -18.7733 -7.89606 10.2113 xyz
    dof rx ry rz
  end
  begin
    id 25
    name LeftToes
    direction -0.18506 0.293668 0.937823
    length 4.75197
    axis 71.2267 -7.89606 10.2113 xyz
    dof rx ry rz
  end
:hierarchy
  begin
    root RightUpLegDummy SpineDummy LeftUpLegDummy
    RightUpLegDummy RightUpLeg
    RightUpLeg RightLeg
    RightLeg RightFoot
    RightFoot RightToes
    SpineDummy Spine
    Spine Spine1
    Spine1 HEadDummy LeftShoulder1Dummy RightShoulderDummy
    HEadDummy HEad
    LeftShoulder1Dummy LeftShoulder1
    LeftShoulder1 LeftArm
    LeftArm LeftForeArm
    LeftForeArm LeftHand
    RightShoulderDummy RightShoulder
    RightShoulder RightArm
    RightArm RightForeArm
    RightForeArm RightHand
    LeftUpLegDummy LeftUpLeg
    LeftUpLeg LeftLeg
    LeftLeg LeftFoot
    LeftFoot LeftToes
  end

:SAMPLES-PER-SECOND 30
:FULLY-SPECIFIED
:DEGREES
361
root  -4.44488 30.6709 -9.38824 -20.569 30.6972 117.097
RightUpLeg  -22.7778 2.46643 -42.986
RightLeg  -89.6116 -10.7248 -11.3536
RightFoot  26.3687 -5.11563 -3.4439
RightToes  -1.27222e-014 -6.36111e-015 6.36111e-015
Spine  -5.75954 -41.0867 -38.7687
Spine1  -41.4541 -12.5113 83.1116
HEad  8.29405 -50.2797 -9.63828
LeftShoulder1  6.36111e-015 -1.33558e-015 6.49777e-015
LeftArm  -67.1402 -41.5988 42.8404
LeftForeArm  5.67064 5.2627 0.0730638
LeftHand  2.68742 8.35334 -3.38705
RightShoulder  -4.77083e-015 -6.36111e-015 -3.18055e-015
RightArm  -5.7613 38.057 -73.925
RightForeArm  15.831 -15.6424 1.22588
RightHand  17.1297 -9.22757 -60.7396
LeftUpLeg  2.80598 11.532 67.2892
LeftLeg  -47.6652 4.54321 -14.2395
LeftFoot  5.11021 1.82829 -5.30564
LeftToes  9.54166e-015 -1.91609e-011 -2.3878e-011
362
root  -5.17899 31.2291 -11.0151 -12.5428 15.7308 122.265
RightUpLeg  -28.8861 1.36667 -45.094
RightLeg  -93.9953 -11.1706 -9.40061
RightFoot  24.6364 -3.18927 -5.39372
RightToes  -1.27222e-014 -6.36111e-015 6.36111e-015
Spine  -2.7868 -41.5754 -39.315
Spine1  -40.1508 -11.9893 88.8347
HEad  4.08121 -43.904 -7.68412
LeftShoulder1  6.36111e-015 -1.33558e-015 6.49777e-015
LeftArm  -69.8988 -44.8933 38.6595
LeftForeArm  2.39377 6.84905 -0.420991
LeftHand  3.67799 11.4799 -3.99408
RightShoulder  -4.77083e-015 -6.36111e-015 -3.18055e-015
RightArm  -8.62235 34.9718 -66.6677
RightForeArm  8.89741 -22.713 -4.08702
RightHand  17.9568 -9.62271 -62.2005
LeftUpLeg  4.20085 10.9549 68.3422
LeftLeg  -47.8517 4.8143 -14.9837
LeftFoot  10.7718 2.60713 -6.55445
LeftToes  9.54166e-015 -1.91609e-011 -2.3878e-011
363
root  -6.59592 32.1695 -11.9118 -5.60697 -1.60312 124.85
RightUpLeg  -35.2269 -2.39668 -45.7814
RightLeg  -97.2275 -11.8902 -8.71077
RightFoot  22.6714 -1.03704 -7.75406
RightToes  -1.27222e-014 -6.36111e-015 6.36111e-015
Spine  -4.07747 -40.0549 -35.6643
Spine1  -37.6748 -11.9671 90.0068
HEad  -3.5028 -36.1205 -5.76471
LeftShoulder1  6.36111e-015 -1.33558e-015 6.49777e-015
LeftArm  -67.7149 -45.9633 33.8028
LeftForeArm  -4.054 15.1533 0.0470541
LeftHand  3.91236 13.9016 -6.82984
RightShoulder  -4.77083e-015 -6.36111e-015 -3.18055e-015
RightArm  -15.5468 31.423 -62.7707
RightForeArm  4.46452 -28.7169 -9.01899
RightHand  18.263 -10.4305 -61.2177
LeftUpLeg  8.16491 9.67404 68.6796
LeftLeg  -47.48 3.63909 -14.2018
LeftFoot  16.4237 3.86284 -8.49666
LeftToes  9.54166e-015 -1.91609e-011 -2.3878e-011
364
root  -8.36632 33.2463 -11.7432 1.66345 -19.7822 124.351
RightUpLeg  -39.5361 -4.04442 -47.8118
RightLeg  -97.8618 -11.5223 -4.18986
RightFoot  21.5703 1.05085 -10.4713
RightToes  -1.27222e-014 -6.36111e-015 6.36111e-015
Spine  -7.94541 -37.4501 -30.1437
Spine1  -33.95 -12.8156 87.8465
HEad  -10.4904 -29.0434 -2.90046
LeftShoulder1  6.36111e-015 -1.33558e-015 6.49777e-015
LeftArm  -64.5484 -44.6337 29.0638
LeftForeArm  -11.8235 25.292 1.12856
LeftHand  3.1458 10.1471 -4.36825
RightShoulder  -4.77083e-015 -6.36111e-015 -3.18055e-015
RightArm  -21.6466 30.2528 -61.5051
RightForeArm  -1.47472 -38.1134 -12.3876
RightHand  18.2569 -11.3563 -59.1694
LeftUpLeg  12.2913 8.25037 67.5664
LeftLeg  -47.1104 1.0873 -11.967
LeftFoot  21.3087 6.53843 -12.8618
LeftToes  9.54166e-015 -1.91609e-011 -2.3878e-011
365
root  -9.87921 34.1343 -10.4968 9.5683 -38.4259 119.573
RightUpLeg  -40.23 -4.94127 -49.3953
RightLeg  -93.8273 -11.7292 0.362974
RightFoot  19.3119 2.93522 -12.7693
RightToes  -1.27222e-014 -6.36111e-015 6.36111e-015
Spine  -10.8527 -33.3445 -24.3698
Spine1  -31.5315 -13.3088 81.8196
HEad  -13.2166 -24.8443 -1.05576
LeftShoulder1  6.36111e-015 -1.33558e-015 6.49777e-015
LeftArm  -62.8281 -43.22 26.8325
LeftForeArm  -19.3729 30.9711 -0.230535
LeftHand  1.62541 6.08799 -5.21313
RightShoulder  -4.77083e-015 -6.36111e-015 -3.18055e-015
RightArm  -23.9867 30.7547 -60.0505
RightForeArm  -8.82127 -47.8277 -12.3122
RightHand  18.8941 -12.772 -57.9505
LeftUpLeg  17.2697 7.16623 66.0527
LeftLeg  -46.3043 -1.11823 -10.2166
LeftFoot  21.8946 10.2266 -19.7235
LeftToes  9.54166e-015 -1.91609e-011 -2.3878e-011
366
root  -10.6123 34.5509 -8.6237 23.1569 -56.7183 106.154
RightUpLeg  -37.8595 -6.3942 -49.4418
RightLeg  -87.1807 -13.0995 3.5289
RightFoot  15.8357 4.34219 -14.2879
RightToes  -1.27222e-014 -6.36111e-015 6.36111e-015
Spine  -11.4307 -28.2831 -19.0572
Spine1  -31.3098 -13.5302 71.6364
HEad  -14.0286 -23.9051 -0.223025
LeftShoulder1  6.36111e-015 -1.33558e-015 6.49777e-015
LeftArm  -64.1951 -42.4306 27.8159
LeftForeArm  -24.7918 33.0907 -1.84084
LeftHand  2.4679 9.27167 -6.56699
RightShoulder  -4.77083e-015 -6.36111e-015 -3.18055e-015
RightArm  -24.5379 29.5474 -56.5586
RightForeArm  -13.9214 -54.3582 -11.25
RightHand  18.8649 -14.3612 -54.7598
LeftUpLeg  23.1059 6.69315 64.8259
LeftLeg  -44.6501 -3.7384 -8.6336
LeftFoot  19.4084 13.218 -26.6765
LeftToes  9.54166e-015 -1.91609e-011 -2.3878e-011
367
root  -10.5584 34.5334 -6.65467 61.8095 -69.5461 66.9883
RightUpLeg  -33.7338 -6.872 -49.8345
RightLeg  -82.0856 -15.0333 7.03176
RightFoot  14.3668 4.30934 -13.9252
RightToes  -1.27222e-014 -6.36111e-015 6.36111e-015
Spine  -12.2584 -23.3861 -13.7224
Spine1  -30.4954 -15.5178 56.0162
HEad  -15.2254 -25.9158 1.477
LeftShoulder1  6.36111e-015 -1.33558e-015 6.49777e-015
LeftArm  -69.2468 -40.4104 30.5987
LeftForeArm  -23.0579 30.0696 0.503814
LeftHand  5.59382 14.1056 0.512861
RightShoulder  -4.77083e-015 -6.36111e-015 -3.18055e-015
RightArm  -24.9192 26.6025 -52.7343
RightForeArm  -16.9217 -60.9024 -10.4546
RightHand  18.1409 -15.9428 -49.9602
LeftUpLeg  27.1309 6.81639 63.3394
LeftLeg  -42.6228 -6.39415 -6.89377
LeftFoot  17.7416 14.3012 -29.8197
LeftToes  9.54166e-015 -1.91609e-011 -2.3878e-011
368
root  -9.94573 34.3477 -4.79671 116.852 -63.6385 10.4037
RightUpLeg  -28.9741 -4.35886 -50.7484
RightLeg  -79.9975 -16.5758 9.85233
RightFoot  14.6064 3.53208 -12.6474
RightToes  -1.27222e-014 -6.36111e-015 6.36111e-015
Spine  -13.7861 -16.4788 -5.56795
Spine1  -26.9551 -18.3265 32.9051
HEad  -15.4453 -31.2461 3.67681
LeftShoulder1  6.36111e-015 -1.33558e-015 6.49777e-015
LeftArm  -76.3393 -38.0503 35.3578
LeftForeArm  -16.9792 22.7763 3.35688
LeftHand  8.00481 14.7985 9.44315
RightShoulder  -4.77083e-015 -6.36111e-015 -3.18055e-015
RightArm  -23.5567 21.287 -49.6812
RightForeArm  -20.9448 -65.358 -8.08256
RightHand  18.8904 -18.0942 -48.2954
LeftUpLeg  26.8181 9.19971 62.9665
LeftLeg  -36.5666 -7.57752 -4.95408
LeftFoot  15.8358 13.3807 -29.1452
LeftToes  9.54166e-015 -1.91609e-011 -2.3878e-011
369
root  -8.88841 34.2944 -3.24459 135.744 -45.6646 -14.2301
RightUpLeg  -24.1506 1.32108 -52.5864
RightLeg  -79.3187 -17.9219 12.6395
RightFoot  14.7178 3.57049 -12.7393
RightToes  -1.27222e-014 -6.36111e-015 6.36111e-015
Spine  -10.6599 -7.96523 2.6743
Spine1  -21.6272 -18.5453 7.76368
HEad  -13.7773 -37.5422 4.13468
LeftShoulder1  6.36111e-015 -1.33558e-015 6.49777e-015
LeftArm  -83.9325 -36.8771 45.573
LeftForeArm  -12.8527 19.839 2.26747
LeftHand  9.21801 16.4021 11.0885
RightShoulder  -4.77083e-015 -6.36111e-015 -3.18055e-015
RightArm  -19.9936 15.5169 -47.0602
RightForeArm  -20.0414 -63.2068 -8.09341
RightHand  19.1598 -19.5466 -46.6869
LeftUpLeg  24.3954 15.2559 65.3728
LeftLeg  -28.9473 -8.08142 -1.47798
LeftFoot  14.6926 12.3098 -27.5804
LeftToes  9.54166e-015 -1.91609e-011 -2.3878e-011
370
root  -7.73451 34.4158 -2.11879 136.834 -27.1964 -25.0824
RightUpLeg  -19.1274 7.79881 -55.1512
RightLeg  -77.4994 -19.9738 15.5998
RightFoot  15.0487 4.07025 -13.6639
RightToes  -1.27222e-014 -6.36111e-015 6.36111e-015
Spine  -3.82864 -1.81384 7.18713
Spine1  -16.9751 -15.6222 -8.45814
HEad  -11.834 -40.9072 3.28921
LeftShoulder1  6.36111e-015 -1.33558e-015 6.49777e-015
LeftArm  -90.0288 -36.1661 59.9334
LeftForeArm  -11.5053 22.307 -0.61925
LeftHand  11.7709 20.694 12.3659
RightShoulder  -4.77083e-015 -6.36111e-015 -3.18055e-015
RightArm  -15.6271 14.0446 -45.0924
RightForeArm  -12.8716 -54.5731 -8.9116
RightHand  15.407 -19.6884 -36.7177
LeftUpLeg  19.3283 15.7213 64.6335
LeftLeg  -23.7384 -2.60207 -2.84974
LeftFoot  13.8538 10.8311 -24.8284
LeftToes  9.54166e-015 -1.91609e-011 -2.3878e-011
371
root  -6.73262 34.6029 -1.15511 133.86 -11.0596 -31.3497
RightUpLeg  -14.9654 12.2189 -56.3281
RightLeg  -72.6649 -22.9242 17.0349
RightFoot  14.4082 4.82265 -14.8181
RightToes  -1.27222e-014 -6.36111e-015 6.36111e-015
Spine  0.31056 2.42028 9.45125
Spine1  -13.7926 -11.4341 -14.6381
HEad  -9.91734 -40.2547 2.88729
LeftShoulder1  6.36111e-015 -1.33558e-015 6.49777e-015
LeftArm  -92.1554 -35.2464 70.1258
LeftForeArm  -10.0371 22.4084 -1.62954
LeftHand  14.0389 22.8277 15.7616
RightShoulder  -4.77083e-015 -6.36111e-015 -3.18055e-015
RightArm  -11.3196 17.7287 -43.1619
RightForeArm  -5.97894 -38.9075 -4.95935
RightHand  9.26613 -19.4652 -19.1444
LeftUpLeg  10.711 17.8767 61.093
LeftLeg  -25.7937 0.589915 -4.15864
LeftFoot  10.5098 8.16498 -20.3899
LeftToes  9.54166e-015 -1.91609e-011 -2.3878e-011
